<svg width="183" height="50" viewBox="0 0 183 50" fill="none" xmlns="http://www.w3.org/2000/svg">
<rect x="1" y="1" width="42" height="48" rx="4" stroke="white" stroke-width="2"/>
<path d="M51.382 38V11.02H62.782C63.9473 11.02 65.0113 11.2733 65.974 11.78C66.962 12.2613 67.8107 12.9073 68.52 13.718C69.2293 14.5033 69.774 15.4027 70.154 16.416C70.5593 17.4293 70.762 18.4553 70.762 19.494C70.762 20.482 70.61 21.432 70.306 22.344C70.0273 23.2307 69.622 24.0413 69.09 24.776C68.5833 25.4853 67.9627 26.0933 67.228 26.6C66.4933 27.0813 65.67 27.4107 64.758 27.588L71.37 38H68.368L62.022 28.044H54.042V38H51.382ZM54.042 25.688H62.858C63.6433 25.688 64.3527 25.5233 64.986 25.194C65.6447 24.8393 66.202 24.3707 66.658 23.788C67.114 23.2053 67.4687 22.5467 67.722 21.812C67.9753 21.0773 68.102 20.3047 68.102 19.494C68.102 18.6833 67.95 17.9107 67.646 17.176C67.3673 16.416 66.9747 15.7573 66.468 15.2C65.9867 14.6427 65.404 14.1993 64.72 13.87C64.0613 13.5407 63.3647 13.376 62.63 13.376H54.042V25.688ZM83.5555 38.38C82.1115 38.38 80.7942 38.114 79.6035 37.582C78.4129 37.0247 77.3742 36.2773 76.4875 35.34C75.6262 34.4027 74.9549 33.3133 74.4735 32.072C73.9922 30.8307 73.7515 29.526 73.7515 28.158C73.7515 26.7647 73.9922 25.4473 74.4735 24.206C74.9802 22.9647 75.6642 21.8753 76.5255 20.938C77.4122 20.0007 78.4509 19.2533 79.6415 18.696C80.8322 18.1387 82.1369 17.86 83.5555 17.86C84.9742 17.86 86.2789 18.1387 87.4695 18.696C88.6855 19.2533 89.7242 20.0007 90.5855 20.938C91.4722 21.8753 92.1562 22.9647 92.6375 24.206C93.1442 25.4473 93.3975 26.7647 93.3975 28.158C93.3975 29.526 93.1569 30.8307 92.6755 32.072C92.1942 33.3133 91.5102 34.4027 90.6235 35.34C89.7622 36.2773 88.7235 37.0247 87.5075 37.582C86.3169 38.114 84.9995 38.38 83.5555 38.38ZM76.3735 28.196C76.3735 29.3107 76.5635 30.3493 76.9435 31.312C77.3235 32.2493 77.8302 33.0853 78.4635 33.82C79.1222 34.5293 79.8822 35.0867 80.7435 35.492C81.6302 35.8973 82.5675 36.1 83.5555 36.1C84.5435 36.1 85.4682 35.8973 86.3295 35.492C87.2162 35.0613 87.9889 34.4913 88.6475 33.782C89.3062 33.0473 89.8255 32.1987 90.2055 31.236C90.5855 30.2733 90.7755 29.2347 90.7755 28.12C90.7755 27.0307 90.5855 26.0047 90.2055 25.042C89.8255 24.054 89.3062 23.2053 88.6475 22.496C87.9889 21.7613 87.2162 21.1913 86.3295 20.786C85.4682 20.3553 84.5435 20.14 83.5555 20.14C82.5675 20.14 81.6429 20.3553 80.7815 20.786C79.9202 21.1913 79.1602 21.7613 78.5015 22.496C77.8429 23.2307 77.3235 24.092 76.9435 25.08C76.5635 26.0427 76.3735 27.0813 76.3735 28.196ZM97.8331 10.26H100.417V33.516C100.417 34.2507 100.62 34.8333 101.025 35.264C101.43 35.6693 102 35.872 102.735 35.872C103.014 35.872 103.343 35.834 103.723 35.758C104.103 35.682 104.458 35.5807 104.787 35.454L105.243 37.544C104.762 37.7467 104.166 37.9113 103.457 38.038C102.773 38.1647 102.178 38.228 101.671 38.228C100.48 38.228 99.5431 37.8987 98.8591 37.24C98.1751 36.556 97.8331 35.606 97.8331 34.39V10.26ZM108.187 10.26H110.771V33.516C110.771 34.2507 110.973 34.8333 111.379 35.264C111.784 35.6693 112.354 35.872 113.089 35.872C113.367 35.872 113.697 35.834 114.077 35.758C114.457 35.682 114.811 35.5807 115.141 35.454L115.597 37.544C115.115 37.7467 114.52 37.9113 113.811 38.038C113.127 38.1647 112.531 38.228 112.025 38.228C110.834 38.228 109.897 37.8987 109.213 37.24C108.529 36.556 108.187 35.606 108.187 34.39V10.26ZM116.838 24.32C116.838 22.6987 117.117 21.09 117.674 19.494C118.257 17.8727 119.093 16.4287 120.182 15.162C121.272 13.8953 122.614 12.8693 124.21 12.084C125.806 11.2733 127.618 10.868 129.644 10.868C132.051 10.868 134.103 11.4127 135.8 12.502C137.523 13.5913 138.79 15.01 139.6 16.758L137.51 18.05C137.08 17.1633 136.548 16.416 135.914 15.808C135.306 15.2 134.648 14.706 133.938 14.326C133.229 13.946 132.494 13.68 131.734 13.528C130.974 13.3507 130.227 13.262 129.492 13.262C127.871 13.262 126.44 13.5913 125.198 14.25C123.957 14.9087 122.906 15.77 122.044 16.834C121.208 17.898 120.575 19.1013 120.144 20.444C119.714 21.7613 119.498 23.104 119.498 24.472C119.498 25.9667 119.752 27.398 120.258 28.766C120.79 30.134 121.5 31.35 122.386 32.414C123.298 33.4527 124.362 34.2887 125.578 34.922C126.82 35.53 128.162 35.834 129.606 35.834C130.366 35.834 131.139 35.7453 131.924 35.568C132.735 35.3653 133.508 35.0613 134.242 34.656C135.002 34.2253 135.699 33.706 136.332 33.098C136.966 32.4647 137.498 31.7047 137.928 30.818L140.132 31.958C139.702 32.9713 139.094 33.8707 138.308 34.656C137.523 35.416 136.649 36.062 135.686 36.594C134.724 37.126 133.698 37.5313 132.608 37.81C131.544 38.0887 130.493 38.228 129.454 38.228C127.605 38.228 125.908 37.8227 124.362 37.012C122.817 36.2013 121.487 35.15 120.372 33.858C119.258 32.5407 118.384 31.0587 117.75 29.412C117.142 27.74 116.838 26.0427 116.838 24.32ZM149.121 38.38C148.184 38.38 147.31 38.228 146.499 37.924C145.714 37.5947 145.017 37.1513 144.409 36.594C143.826 36.0367 143.37 35.3907 143.041 34.656C142.712 33.896 142.547 33.0853 142.547 32.224C142.547 31.3627 142.75 30.5647 143.155 29.83C143.56 29.0953 144.13 28.462 144.865 27.93C145.6 27.398 146.474 26.9927 147.487 26.714C148.5 26.41 149.615 26.258 150.831 26.258C151.844 26.258 152.87 26.3467 153.909 26.524C154.948 26.7013 155.872 26.9547 156.683 27.284V25.498C156.683 23.75 156.189 22.3693 155.201 21.356C154.213 20.3173 152.845 19.798 151.097 19.798C150.084 19.798 149.045 20.0007 147.981 20.406C146.917 20.8113 145.84 21.394 144.751 22.154L143.839 20.444C146.398 18.7213 148.88 17.86 151.287 17.86C153.77 17.86 155.72 18.5567 157.139 19.95C158.558 21.3433 159.267 23.2687 159.267 25.726V34.656C159.267 35.3653 159.584 35.72 160.217 35.72V38C159.786 38.076 159.457 38.114 159.229 38.114C158.57 38.114 158.051 37.9493 157.671 37.62C157.316 37.2907 157.126 36.8347 157.101 36.252L157.025 34.694C156.113 35.8847 154.96 36.7967 153.567 37.43C152.199 38.0633 150.717 38.38 149.121 38.38ZM149.729 36.404C151.072 36.404 152.3 36.1507 153.415 35.644C154.555 35.1373 155.416 34.466 155.999 33.63C156.227 33.402 156.392 33.1613 156.493 32.908C156.62 32.6293 156.683 32.376 156.683 32.148V28.918C155.822 28.5887 154.922 28.3353 153.985 28.158C153.073 27.9807 152.136 27.892 151.173 27.892C149.349 27.892 147.867 28.272 146.727 29.032C145.587 29.792 145.017 30.7927 145.017 32.034C145.017 32.642 145.131 33.212 145.359 33.744C145.612 34.276 145.942 34.7447 146.347 35.15C146.778 35.53 147.284 35.834 147.867 36.062C148.45 36.29 149.07 36.404 149.729 36.404ZM164.964 10.26H167.548V33.516C167.548 34.2507 167.751 34.8333 168.156 35.264C168.561 35.6693 169.131 35.872 169.866 35.872C170.145 35.872 170.474 35.834 170.854 35.758C171.234 35.682 171.589 35.5807 171.918 35.454L172.374 37.544C171.893 37.7467 171.297 37.9113 170.588 38.038C169.904 38.1647 169.309 38.228 168.802 38.228C167.611 38.228 166.674 37.8987 165.99 37.24C165.306 36.556 164.964 35.606 164.964 34.39V10.26ZM175.318 10.26H177.902V33.516C177.902 34.2507 178.104 34.8333 178.51 35.264C178.915 35.6693 179.485 35.872 180.22 35.872C180.498 35.872 180.828 35.834 181.208 35.758C181.588 35.682 181.942 35.5807 182.272 35.454L182.728 37.544C182.246 37.7467 181.651 37.9113 180.942 38.038C180.258 38.1647 179.662 38.228 179.156 38.228C177.965 38.228 177.028 37.8987 176.344 37.24C175.66 36.556 175.318 35.606 175.318 34.39V10.26Z" fill="white"/>
<rect x="7" y="12" width="6" height="6" fill="white"/>
<rect x="15" y="14" width="22" height="2" fill="white"/>
<rect x="7" y="22" width="6" height="6" fill="white"/>
<rect x="15" y="24" width="22" height="2" fill="white"/>
<rect x="7" y="32" width="6" height="6" fill="white"/>
<rect x="15" y="34" width="22" height="2" fill="white"/>
</svg>
